# https://github.com/mikedh/trimesh
mtllib material.mtl
usemtl material_0
v -0.50000000 -0.50000000 0.50000000
v -0.50000000 -0.50000000 0.50000000
v -0.50000000 -0.50000000 0.50000000
v 0.50000000 -0.50000000 0.50000000
v 0.50000000 -0.50000000 0.50000000
v 0.50000000 -0.50000000 0.50000000
v -0.50000000 0.50000000 0.50000000
v -0.50000000 0.50000000 0.50000000
v -0.50000000 0.50000000 0.50000000
v 0.50000000 0.50000000 0.50000000
v 0.50000000 0.50000000 0.50000000
v 0.50000000 0.50000000 0.50000000
v -0.50000000 0.50000000 -0.50000000
v -0.50000000 0.50000000 -0.50000000
v -0.50000000 0.50000000 -0.50000000
v 0.50000000 0.50000000 -0.50000000
v 0.50000000 0.50000000 -0.50000000
v 0.50000000 0.50000000 -0.50000000
v -0.50000000 -0.50000000 -0.50000000
v -0.50000000 -0.50000000 -0.50000000
v -0.50000000 -0.50000000 -0.50000000
v 0.50000000 -0.50000000 -0.50000000
v 0.50000000 -0.50000000 -0.50000000
v 0.50000000 -0.50000000 -0.50000000
vn 0.00000000 0.00000000 1.00000000
vn -1.00000000 0.00000000 0.00000000
vn 0.00000000 -1.00000000 0.00000000
vn 0.00000000 0.00000000 1.00000000
vn 1.00000000 0.00000000 0.00000000
vn 0.00000000 -1.00000000 0.00000000
vn 0.00000000 0.00000000 1.00000000
vn 0.00000000 1.00000000 0.00000000
vn -1.00000000 0.00000000 0.00000000
vn 0.00000000 0.00000000 1.00000000
vn 0.00000000 1.00000000 0.00000000
vn 1.00000000 0.00000000 0.00000000
vn -1.00000000 0.00000000 0.00000000
vn 0.00000000 0.00000000 -1.00000000
vn 0.00000000 1.00000000 0.00000000
vn 0.00000000 0.00000000 -1.00000000
vn 1.00000000 0.00000000 0.00000000
vn 0.00000000 1.00000000 0.00000000
vn -1.00000000 0.00000000 0.00000000
vn 0.00000000 0.00000000 -1.00000000
vn 0.00000000 -1.00000000 0.00000000
vn 0.00000000 -1.00000000 0.00000000
vn 1.00000000 0.00000000 0.00000000
vn 0.00000000 0.00000000 -1.00000000
vt 0.37500000 0.00000000
vt 0.37500000 0.00000000
vt 0.37500000 1.00000000
vt 0.62500000 0.00000000
vt 0.62500000 0.00000000
vt 0.62500000 1.00000000
vt 0.37500000 0.25000000
vt 0.37500000 0.25000000
vt 0.37500000 0.25000000
vt 0.62500000 0.25000000
vt 0.62500000 0.25000000
vt 0.62500000 0.25000000
vt 0.12500000 0.25000000
vt 0.37500000 0.50000000
vt 0.37500000 0.50000000
vt 0.62500000 0.50000000
vt 0.87500000 0.25000000
vt 0.62500000 0.50000000
vt 0.12500000 0.00000000
vt 0.37500000 0.75000000
vt 0.37500000 0.75000000
vt 0.62500000 0.75000000
vt 0.87500000 0.00000000
vt 0.62500000 0.75000000
f 1/1/1 4/4/4 10/10/10
f 1/1/1 10/10/10 7/7/7
f 8/8/8 11/11/11 18/18/18
f 8/8/8 18/18/18 15/15/15
f 14/14/14 16/16/16 24/24/24
f 14/14/14 24/24/24 20/20/20
f 21/21/21 22/22/22 6/6/6
f 21/21/21 6/6/6 3/3/3
f 5/5/5 23/23/23 17/17/17
f 5/5/5 17/17/17 12/12/12
f 19/19/19 2/2/2 9/9/9
f 19/19/19 9/9/9 13/13/13

