# This file uses centimeters as units for non-parametric coordinates.

mtllib cube.mtl
g default
v 48.656645 48.864150 4.766477
v 58.189599 48.864150 4.766477
v 48.656645 58.397104 4.766477
v 58.189599 58.397104 4.766477
v 48.656645 58.397104 -4.766477
v 58.189599 58.397104 -4.766477
v 48.656645 48.864150 -4.766477
v 58.189599 48.864150 -4.766477
vt 0.375000 0.000000
vt 0.625000 0.000000
vt 0.375000 0.250000
vt 0.625000 0.250000
vt 0.375000 0.500000
vt 0.625000 0.500000
vt 0.375000 0.750000
vt 0.625000 0.750000
vt 0.375000 1.000000
vt 0.625000 1.000000
vt 0.875000 0.000000
vt 0.875000 0.250000
vt 0.125000 0.000000
vt 0.125000 0.250000
vn 0.000000 0.000000 1.000000
vn 0.000000 1.000000 0.000000
vn 0.000000 0.000000 -1.000000
vn 0.000000 -1.000000 0.000000
vn 1.000000 0.000000 0.000000
vn -1.000000 0.000000 0.000000
s off
g pCube1
usemtl initialShadingGroup

f 1/1/1 2/2/1 4/4/1
f 1/1/1 4/4/1 3/3/1
f 3/3/2 4/4/2 6/6/2
f 3/3/2 6/6/2 5/5/2
f 5/5/3 6/6/3 8/8/3
f 5/5/3 8/8/3 7/7/3
f 7/7/4 8/8/4 2/10/4
f 7/7/4 2/10/4 1/9/4
f 2/2/5 8/11/5 6/12/5
f 2/2/5 6/12/5 4/4/5
f 7/13/6 1/1/6 3/3/6
f 7/13/6 3/3/6 5/14/6

